<?xml version="1.0"?>
<svg width="24" height="24" xmlns="http://www.w3.org/2000/svg" xmlns:svg="http://www.w3.org/2000/svg" class="r-4qtqp9 r-yyyyoo r-1xvli5t r-dnmrzs r-bnwqim r-1plcrui r-lrvibr r-1hdv0qi">
 <g class="layer">
  <title>Layer 1</title>
  <g id="svg_1">
   <path d="m16.7,5.5c-1.23,-0.06 -2.68,0.51 -3.89,2.16l-0.81,1.09l-0.8,-1.09c-1.22,-1.65 -2.67,-2.22 -3.9,-2.16c-1.24,0.07 -2.34,0.78 -2.91,1.91c-0.55,1.12 -0.63,2.78 0.48,4.82c1.08,1.97 3.26,4.27 7.13,6.61c3.87,-2.34 6.05,-4.64 7.13,-6.61c1.11,-2.04 1.03,-3.7 0.48,-4.82c-0.57,-1.13 -1.67,-1.84 -2.91,-1.91zm4.18,7.69c-1.35,2.48 -4,5.12 -8.37,7.67l-0.51,0.3l-0.5,-0.3c-4.38,-2.55 -7.03,-5.19 -8.38,-7.67c-1.36,-2.5 -1.41,-4.86 -0.52,-6.67c0.89,-1.79 2.65,-2.91 4.6,-3.01c1.65,-0.09 3.37,0.56 4.8,2.01c1.43,-1.45 3.15,-2.1 4.8,-2.01c1.95,0.1 3.71,1.22 4.6,3.01c0.89,1.81 0.84,4.17 -0.52,6.67z" fill="#ff0000" id="svg_2"/>
  </g>
  <path d="m8.91,7.97c0.64,2.62 1.41,4.55 1.8,7.88c0.23,1.97 -0.65,0.75 -1.49,-0.68l-0.84,-1.18" fill="none" id="svg_6" stroke="#fc0202"/>
  <path d="m6.16,10.72c0.62,0.5 1.23,1.27 1.77,1.94c0.21,0.26 -0.08,-0.56 -0.53,-1.36c-0.44,-0.76 -0.54,-0.03 -0.99,-0.77c-0.46,-0.76 0.18,-0.28 0.82,0.35c0.64,0.63 1.26,1.29 1.01,0.56c-0.27,-0.8 -0.83,-1.6 -0.77,-1.37c0.22,0.87 0.85,1.55 1.29,2.28c0.47,0.79 0.15,-0.01 -0.21,-0.82c-0.38,-0.83 -0.78,-1.64 -0.58,-1.05c0.25,0.78 1.07,1.45 1.15,0.84c0.1,-0.85 0.46,-2.52 -0.46,-2.61c-0.51,-0.05 0.57,-0.55 -0.04,-1.18c-0.27,-0.28 -0.77,0.77 -1.3,1.5c-0.51,0.71 -0.89,0.55 -0.6,-0.29c0.25,-0.72 -0.35,-0.1 -0.94,0.66c-0.51,0.66 -1.05,1.38 -1.04,0.9c0.01,-0.86 -0.42,-1.87 -0.09,-2.66c0.33,-0.79 1.43,-0.19 2.23,-0.54c0.8,-0.35 -0.04,-0.54 -0.8,-0.09c-0.77,0.45 -1.44,1.14 -1.76,1.94c-0.32,0.8 -0.14,0.98 0.31,0.19c0.43,-0.76 0.5,-1.73 1.18,-2.28c0.67,-0.55 1.52,-0.78 2.4,-0.56c0.82,0.21 1.45,1.81 1.9,1.35c0.57,-0.58 -1.1,-1.29 -1.96,-1.27c-0.83,0.02 -2.08,0.78 -2.54,0.07c-0.47,-0.74 1.17,-1.12 2.02,-0.9c0.85,0.22 1.69,0.49 2.35,0.91c0.73,0.46 1.34,1.13 1.67,1.88c0.34,0.78 0.08,1.7 -0.11,2.58c-0.18,0.85 -0.04,1.62 0.06,2.55c0.1,0.85 0.21,1.76 0.46,2.61c0.26,0.86 0.79,1.5 1.32,0.89c0.56,-0.64 0.95,-1.41 1.24,-2.23c0.21,-0.59 0.82,-1.34 1.43,-1.96c0.52,-0.53 1.17,-1.17 1.78,-1.91c0.59,-0.71 1.07,-1.41 1.37,-2.3c0.28,-0.87 0.57,-2.03 -0.1,-2.52c-0.73,-0.53 -1.75,0.17 -2.31,0.81c-0.56,0.64 -0.89,1.58 -1.57,2.16c-0.67,0.58 -1.9,0.9 -1.94,0.33c-0.06,-0.84 0.95,-1.42 1.55,-2.03c0.7,-0.72 1.3,-1.28 2.1,-1.82c0.75,-0.5 0.26,-0.02 -0.46,0.54c-0.68,0.53 -1.34,1.14 -2.1,1.62c-0.75,0.48 -0.96,-0.06 -0.43,-0.74c0.56,-0.72 -0.02,-0.18 0.06,-0.25c0.65,-0.59 1.47,-0.96 1.2,-0.69c-0.62,0.59 -1.45,1.11 -2.05,1.65c-0.69,0.61 -0.85,1 0.01,1.2c0.82,0.2 1.68,0.42 2.39,-0.09c0.7,-0.5 1.67,-1.16 1.11,-1.42c-0.8,-0.37 -2.63,0.38 -2.18,0.96c0.48,0.6 1.42,-0.89 1.77,-1.7c0.37,-0.83 -0.53,-0.79 -1.08,-0.24c-0.61,0.62 -1.38,1.59 -1.07,2.39c0.21,0.55 1.43,1.01 2.22,0.57c0.76,-0.42 1.11,-1.25 1.71,-1.83c0.44,-0.44 -0.15,-0.95 0.15,-0.74c0.68,0.49 0.65,2.36 -0.01,1.83c-0.68,-0.55 1.08,-2 0.46,-2.39c-0.69,-0.44 -1.48,0.87 -1.59,1.57c-0.14,0.88 -0.26,2.39 0.48,2.32c0.86,-0.08 0.68,-1.99 1.26,-1.89c0.78,0.14 0.54,1.58 0.76,1.1c0.37,-0.82 0,-1.8 0,-1.15c0,0.89 0.36,1.94 -0.2,2.62c-0.56,0.68 -1.13,1.01 -1.21,1.38c-0.21,0.87 -1.01,1.43 -1.63,2.08c-0.6,0.63 -1.11,1.4 -1.81,1.94c-0.69,0.53 -0.3,0.18 0.38,-0.29c0.79,-0.55 1.51,-0.99 2.23,-1.52c0.75,-0.55 1.49,-1.07 2,-1.79c0.51,-0.72 0.32,-1.51 -0.16,-1.25c-0.75,0.43 -0.99,1.45 -1.26,1.65c-0.72,0.53 -1.48,1.03 -2.12,1.64c-0.65,0.63 -1.02,1.51 -1.74,2.01c-0.54,0.37 -1.37,0.48 -2.22,0.94c-0.78,0.42 -1.76,1.56 -2.11,1.04c-0.48,-0.71 0.83,-1.78 1.42,-1.87c0.83,-0.12 -0.48,1.38 0.16,1.98c0.57,0.53 1.46,-0.81 2.18,-1.32c0.7,-0.49 1.33,-1.1 2.05,-1.62c0.65,-0.47 1.11,-1.21 1.36,-2.04c0.26,-0.85 0.68,-1.62 0.95,-2.49c0.25,-0.83 0.77,-2.02 0.11,-2.66c-0.22,-0.22 -0.73,0.75 -1.01,1.57c-0.31,0.9 -0.55,1.79 -0.61,2.68c-0.06,0.87 0.25,1.71 0.19,1.25c-0.12,-0.91 -0.66,-1.67 -1.08,-2.4c-0.46,-0.81 -0.31,-1.75 0.13,-1.68c0.66,0.11 1.01,-0.02 0.61,0.71c-0.44,0.78 0.76,0.78 0.12,0.23c-0.55,-0.47 -0.28,0.72 -0.47,-0.16c-0.14,-0.68 -0.74,0.42 -0.58,1.24c0.18,0.95 0.44,1.92 1.17,2.4c0.4,0.26 0.39,-0.78 0.48,-1.7c0.09,-0.86 1.45,-1.81 0.85,-2.47c-0.43,-0.47 -1.28,0.75 -1.92,1.38c-0.61,0.61 -1.26,1.29 -1.85,1.9c-0.64,0.67 -1.07,1.35 -0.86,0.57c0.22,-0.84 0.3,-1.75 0.39,-2.66c0.08,-0.79 0.01,0.07 0.2,0.92c0.19,0.88 0.54,1.7 0.76,2.59c0.22,0.86 0.25,0.91 -0.05,0.04c-0.28,-0.82 -0.51,-1.66 -0.89,-2.49c-0.34,-0.75 -0.44,0.12 -0.3,0.99c0.14,0.89 0.24,1.79 0.1,0.95c-0.14,-0.88 -0.35,-1.72 -0.39,-2.67c-0.01,-0.3 -0.42,-1.17 -0.24,-2.08c0.14,-0.74 1.2,-0.11 1.24,0.76c0.03,0.88 0.02,1.57 0.2,0.7c0.17,-0.85 0.3,-1.75 0.3,-1.18c0,0.9 0.27,1.75 0.19,2.65c-0.08,0.86 -0.54,1.92 -1.39,2.15c-0.64,0.18 -1.04,-0.87 -1.39,-1.67c-0.39,-0.89 -0.76,-1.75 -0.93,-2.6c-0.18,-0.88 0.22,-1.94 0.71,-1.52c0.66,0.56 0.9,1.61 1.01,1.36c0.35,-0.81 0.2,-1.77 0.31,-1.08c0.14,0.85 0.32,1.94 -0.19,2.41c-0.58,0.53 -1.58,-1.09 -0.72,-0.9c0.48,0.1 0.14,1.33 0.29,2.24c0.14,0.85 0.28,1.79 0.21,1.6c-0.31,-0.86 -0.17,-1.84 0.08,-1.39c0.42,0.75 0.64,1.69 0.94,1.44c0.56,-0.47 -0.01,0.18 -0.62,0.84c-0.6,0.65 -0.29,-0.52 0.56,-0.58c0.79,-0.06 -0.78,1.67 -1.05,0.89c-0.25,-0.71 0.16,-0.87 -0.69,-0.96c-0.9,-0.1 -2.14,-0.31 -2.23,-1.15c-0.1,-0.87 1.14,-1.39 1.29,-2.04c0.19,-0.84 -0.2,-1.76 -0.25,-2.63c-0.02,-0.29 -0.41,0.42 -0.78,-0.35c-0.22,-0.46 -0.56,-0.83 -0.4,0c0.17,0.91 0.33,1.8 0.54,2.65c0.21,0.88 0.26,1.76 0.49,2.61c0.21,0.77 0.95,0.11 1.05,-0.78c0.08,-0.68 -0.65,0 -0.68,0.9c-0.03,0.86 0.42,1.68 1.02,2.29c0.55,0.56 1.2,-0.27 0.95,-0.34c-0.87,-0.24 -1.82,0.24 -2.66,-0.06c-0.84,-0.3 -0.97,-1.06 -0.77,-1.78c0.24,-0.85 -0.32,-1.69 -0.69,-2.48c-0.37,-0.8 -0.73,-1.68 -0.89,-2.52c-0.16,-0.86 -0.52,-1.55 -0.11,-1.34c0.7,0.36 0.44,-1.13 -0.28,-0.69c-0.74,0.45 -1.31,1.98 -2.02,1.56c-0.4,-0.24 0.57,-1.09 0.35,-0.98c-0.77,0.42 -1.15,1.05 -1.17,1.88c-0.02,0.66 -0.55,0.08 0,-0.39c0.67,-0.57 1.03,-0.04 1.23,0.78c0.21,0.85 0.82,1.48 1.25,2.33c0.41,0.8 0.66,1.63 0.71,1.08c0.08,-0.86 0.37,-1.74 0.37,-2.61c0,-0.87 -0.22,-1.76 -0.25,-2.65c-0.03,-0.89 -0.02,-1.3 -0.84,-0.94c-0.82,0.36 -1.24,0.44 -0.51,-0.08c0.71,-0.51 1.63,-0.78 2.48,-0.63c0.89,0.16 0.94,0.93 0.76,1.74c-0.18,0.84 -0.16,1.72 -0.14,2.61c0.03,0.87 -0.41,1.71 -0.38,2.6c0.03,0.88 0.02,2.48 0.86,2.4c0.86,-0.08 0.39,-1.87 -0.14,-2.58c-0.52,-0.69 -1.7,-1.25 -2.03,-0.72c-0.48,0.77 -0.26,1.94 0.33,2.66c0.5,0.61 1.91,1.24 1.32,1.53c-0.77,0.38 -1.24,-1.19 -1.79,-1.93c-0.52,-0.71 -1.13,-1.34 -1.7,-2c-0.57,-0.67 -0.84,-1.81 -0.48,-1.73c0.82,0.17 1.11,1.3 1.73,1.92c0.66,0.65 1.27,0.18 1.23,0.37c-0.17,0.85 -0.39,1.72 -0.56,1.75c-0.87,0.16 -1.54,-0.94 -2.09,-1.6c-0.57,-0.69 -0.77,-1.61 -1.37,-2.26c-0.25,-0.27 0.1,0.56 0.66,1.26c0.23,0.28 0.04,-0.61 -0.41,-1.37c-0.43,-0.74 -0.96,-1.35 -0.66,-0.67c0.35,0.78 1.12,1.33 1.62,2c0.56,0.74 0.92,1.62 1.51,2.24c0.59,0.63 1.37,1.02 1.74,1.38c0.62,0.61 0.4,0.88 0.95,0.51c0.26,-0.17 0.25,-0.6 0.28,-1.51c0.03,-0.82 0.08,-1.73 0.11,-2.66c0.03,-0.87 0.06,-1.71 0.07,-2.62c0.01,-0.96 0.01,-2.01 -0.75,-2.01c-0.88,0 -1.01,0.9 -0.66,1.64c0.41,0.87 0.85,1.62 1.3,2.36c0.46,0.76 0.9,1.78 1.76,2.13c0.67,0.27 1.45,-0.37 2.25,-0.76c0.85,-0.41 1.7,-0.81 2.39,-1.12l0.82,-0.49l0.7,-0.59" fill="none" id="svg_7" stroke="#fc0202"/>
  <path d="m8.16,10.22c-0.31,-0.69 -0.53,-0.72 -0.43,0.14c0.1,0.89 0.65,1.08 0.68,0.19c0.03,-0.9 -0.14,-1.66 0.43,-2.02c0.79,-0.5 1.7,-1.06 1.71,-0.82c0.04,0.89 0.19,0.83 0.01,-0.03c-0.09,-0.43 -0.82,0.42 0.04,0.51c0.89,0.1 2.42,1.26 1.62,1.62c-0.7,0.32 -1.19,-1.05 -2.07,-1.28c-0.83,-0.22 -1.73,-0.3 -2.53,-0.31c-0.95,-0.01 -2.04,0.56 -2.8,0c-0.43,-0.32 0.51,-0.92 1.37,-1.15c0.71,-0.19 1.98,0.18 2,-0.32c0.02,-0.89 -1.73,-0.52 -2.6,-0.34c-0.86,0.18 -1.8,0.53 -1.35,-0.1c0.53,-0.75 -0.33,-0.19 -0.2,0.72c0.05,0.36 1.09,0.5 1.68,1.04c0.69,0.64 1.23,1.43 1.58,1.97c0.63,0.98 0.99,1.64 1.44,2.53c0.33,0.66 0.73,1.51 1.13,2.49c0.28,0.69 0.64,1.61 0.96,2.35c0.37,0.87 0.72,1.73 0.16,1.26c-0.69,-0.58 -1.05,-0.6 -1.44,-0.89c-0.37,-0.28 0.72,0 1.47,0.26c0.44,0.15 1.13,-0.66 1.71,-0.93c0.82,-0.38 1.85,0.09 2.61,-0.32c0.74,-0.4 1.13,-1.43 1,-1.44c-0.89,-0.08 -0.75,0.41 -0.11,-0.23c0.64,-0.64 1.26,-1.27 1.56,-1.93c0.38,-0.82 0.77,-1.63 0.94,-2.49c0.1,-0.5 -0.76,-0.16 -0.36,-0.81c0.26,-0.42 -0.35,0.3 -0.25,0.28c0.89,-0.16 1.13,-1.54 0.51,-1.39c-0.94,0.22 -1.56,0.91 -2.26,1.4c-0.63,0.44 -1.43,1.05 -2.2,1.62c-0.63,0.47 -1.46,1.14 -2.28,0.93c-0.8,-0.21 -1.52,-0.68 -2.38,-1c-0.96,-0.36 -1.76,-0.62 -2.57,-0.98l-0.43,-0.73" fill="none" id="svg_8" stroke="#fc0202"/>
  <polyline fill="none" id="svg_9" opacity="0.5" points="7.15625,8.90625 " stroke="#fc0202" stroke-linecap="round"/>
 </g>
</svg>